<svg xmlns="http://www.w3.org/2000/svg" xmlns:xlink="http://www.w3.org/1999/xlink" width="24" height="24" viewBox="0 0 24 24">
    <defs>
        <path id="si7p027mna" d="M12 3c4.97 0 9 4.03 9 9s-4.03 9-9 9-9-4.03-9-9 4.03-9 9-9zm3.082 5.456l-3.905 5.675-2.282-3.06c-.35-.467-1.01-.562-1.474-.211-.465.35-.56 1.014-.21 1.482l3.159 4.235c.431.578 1.299.561 1.707-.033l4.736-6.883c.33-.48.211-1.14-.267-1.473-.478-.332-1.134-.212-1.464.268z"/>
    </defs>
    <g fill="none" fill-rule="evenodd">
        <g>
            <g>
                <g>
                    <g>
                        <g transform="translate(-213 -1260) translate(0 128) translate(20 1089) translate(180 30) translate(13 13)">
                            <mask id="4h5wqm9abb" fill="#fff">
                                <use xlink:href="#si7p027mna"/>
                            </mask>
                            <g fill="#C7C7C7" mask="url(#4h5wqm9abb)">
                                <path d="M0 0L24 0 24 24 0 24z"/>
                            </g>
                        </g>
                    </g>
                </g>
            </g>
        </g>
    </g>
</svg>
