<svg xmlns="http://www.w3.org/2000/svg" xmlns:xlink="http://www.w3.org/1999/xlink" width="24" height="25" viewBox="0 0 24 25">
    <defs>
        <path id="towimg43ba" d="M14.613 8.21l.094.083 6.5 6.5c.39.39.39 1.024 0 1.414-.36.36-.928.388-1.32.083l-.094-.083L14 10.415l-5.793 5.792c-.39.39-1.024.39-1.414 0-.36-.36-.388-.928-.083-1.32l.083-.094 6.5-6.5c.18-.18.412-.277.648-.291h.118c.157.009.313.055.452.138l.102.07z"/>
    </defs>
    <g fill="none" fill-rule="evenodd">
        <g>
            <g>
                <g transform="translate(-61 -130) translate(0 128) rotate(-90 45 -17)">
                    <use fill="#c7c7c7" fill-rule="nonzero" transform="rotate(-180 14 12.25)" xlink:href="#towimg43ba"/>
                </g>
            </g>
        </g>
    </g>
</svg>
